<svg width="85" height="30" viewBox="0 0 85 30" fill="none" xmlns="http://www.w3.org/2000/svg">
<path d="M7.26 2.01C5.84 2.55 4.74 3.39 3.96 4.53C3.18 5.65 2.79 7.03 2.79 8.67C2.79 9.41 2.86 9.93 3 10.23C3.14 10.51 3.21 10.67 3.21 10.71C2.13 10.71 1.32 10.49 0.78 10.05C0.26 9.59 0 8.84 0 7.8C0 6.52 0.52 5.28 1.56 4.08C2.62 2.86 3.97 1.88 5.61 1.14C7.25 0.38 8.89 0 10.53 0C10.81 0 11.21 0.0200003 11.73 0.060001L12 18.51L18.3 0.15H20.4L12.06 22.5H7.74L7.26 2.01Z" fill="white"/>
<path d="M23.287 5.88C22.627 5.88 22.067 5.65 21.607 5.19C21.147 4.73 20.917 4.17 20.917 3.51C20.917 2.85 21.147 2.29 21.607 1.83C22.067 1.35 22.627 1.11 23.287 1.11C23.947 1.11 24.507 1.35 24.967 1.83C25.447 2.29 25.687 2.85 25.687 3.51C25.687 4.17 25.447 4.73 24.967 5.19C24.507 5.65 23.947 5.88 23.287 5.88ZM21.247 22.68C20.287 22.68 19.507 22.38 18.907 21.78C18.327 21.18 18.037 20.28 18.037 19.08C18.037 18.58 18.117 17.93 18.277 17.13L20.317 7.5H24.637L22.477 17.7C22.397 18 22.357 18.32 22.357 18.66C22.357 19.06 22.447 19.35 22.627 19.53C22.827 19.69 23.147 19.77 23.587 19.77C24.167 19.77 24.707 19.53 25.207 19.05C25.707 18.55 26.067 17.91 26.287 17.13H27.547C26.807 19.29 25.857 20.76 24.697 21.54C23.537 22.3 22.387 22.68 21.247 22.68Z" fill="white"/>
<path d="M30.5651 22.68C29.0851 22.68 27.9351 22.3 27.1151 21.54C26.2951 20.76 25.8851 19.55 25.8851 17.91C25.8851 16.53 26.1551 15.01 26.6951 13.35C27.2551 11.69 28.1351 10.26 29.3351 9.06C30.5551 7.84 32.0951 7.23 33.9551 7.23C35.1551 7.23 36.0051 7.49 36.5051 8.01C37.0251 8.53 37.2851 9.19 37.2851 9.99C37.2851 10.69 37.1351 11.23 36.8351 11.61C36.5351 11.99 36.1551 12.18 35.6951 12.18C35.3551 12.18 35.0051 12.06 34.6451 11.82C34.8851 11.16 35.0051 10.57 35.0051 10.05C35.0051 9.67 34.9351 9.37 34.7951 9.15C34.6551 8.93 34.4451 8.82 34.1651 8.82C33.5651 8.82 32.9651 9.31 32.3651 10.29C31.7651 11.27 31.2751 12.46 30.8951 13.86C30.5151 15.26 30.3251 16.52 30.3251 17.64C30.3251 18.62 30.4951 19.29 30.8351 19.65C31.1751 19.99 31.7251 20.16 32.4851 20.16C33.5651 20.16 34.4851 19.91 35.2451 19.41C36.0251 18.91 36.8751 18.15 37.7951 17.13H38.8151C36.5951 20.83 33.8451 22.68 30.5651 22.68Z" fill="white"/>
<path d="M40.7588 22.68C39.7988 22.68 39.0188 22.38 38.4188 21.78C37.8388 21.18 37.5488 20.28 37.5488 19.08C37.5488 18.58 37.6287 17.93 37.7887 17.13L39.5887 8.7H38.5988L38.8387 7.5H39.8288L40.7287 3.36L45.1688 2.76L44.1488 7.5H45.9487L45.7088 8.7H43.9087L41.9888 17.7C41.9088 18 41.8688 18.32 41.8688 18.66C41.8688 19.06 41.9588 19.35 42.1388 19.53C42.3388 19.69 42.6588 19.77 43.0988 19.77C43.6788 19.77 44.2188 19.53 44.7188 19.05C45.2188 18.55 45.5788 17.91 45.7988 17.13H47.0588C46.3188 19.29 45.3688 20.76 44.2088 21.54C43.0488 22.3 41.8988 22.68 40.7588 22.68Z" fill="white"/>
<path d="M50.1668 22.62C48.6868 22.62 47.5168 22.24 46.6568 21.48C45.7968 20.72 45.3668 19.52 45.3668 17.88C45.3668 16.52 45.6468 15.01 46.2068 13.35C46.7668 11.69 47.6668 10.26 48.9068 9.06C50.1468 7.84 51.7068 7.23 53.5868 7.23C56.1468 7.23 57.4268 8.83 57.4268 12.03V12.06C57.4868 12.08 57.5968 12.09 57.7568 12.09C58.4168 12.09 59.1768 11.92 60.0368 11.58C60.8968 11.22 61.6768 10.79 62.3768 10.29L62.6468 11.1C62.0668 11.72 61.3068 12.25 60.3668 12.69C59.4468 13.11 58.4368 13.41 57.3368 13.59C57.1768 15.41 56.7668 17 56.1068 18.36C55.4468 19.72 54.5968 20.77 53.5568 21.51C52.5168 22.25 51.3868 22.62 50.1668 22.62ZM51.3668 19.92C51.8468 19.92 52.3268 19.65 52.8068 19.11C53.2868 18.55 53.7068 17.8 54.0668 16.86C54.4268 15.9 54.6868 14.84 54.8468 13.68C54.3068 13.56 54.0368 13.14 54.0368 12.42C54.0368 11.6 54.3468 11.06 54.9668 10.8C54.9268 10.14 54.8268 9.69 54.6668 9.45C54.5068 9.19 54.2268 9.06 53.8268 9.06C53.1668 9.06 52.5268 9.54 51.9068 10.5C51.2868 11.46 50.7868 12.61 50.4068 13.95C50.0268 15.29 49.8368 16.47 49.8368 17.49C49.8368 18.45 49.9468 19.1 50.1668 19.44C50.3868 19.76 50.7868 19.92 51.3668 19.92Z" fill="white"/>
<path d="M61.0104 7.5H65.3304L64.9404 9.36C65.6204 8.76 66.2304 8.3 66.7704 7.98C67.3304 7.66 67.9304 7.5 68.5704 7.5C69.2104 7.5 69.7104 7.72 70.0704 8.16C70.4504 8.6 70.6404 9.13 70.6404 9.75C70.6404 10.33 70.4504 10.84 70.0704 11.28C69.6904 11.72 69.1604 11.94 68.4804 11.94C68.0404 11.94 67.7404 11.84 67.5804 11.64C67.4404 11.42 67.3304 11.11 67.2504 10.71C67.1904 10.45 67.1304 10.26 67.0704 10.14C67.0104 10.02 66.9004 9.96 66.7404 9.96C66.3204 9.96 65.9604 10.05 65.6604 10.23C65.3804 10.39 65.0104 10.68 64.5504 11.1L62.1504 22.5H57.8304L61.0104 7.5Z" fill="white"/>
<path d="M74.9297 30C73.9897 30 73.1597 29.69 72.4397 29.07C71.7397 28.47 71.3897 27.7 71.3897 26.76C71.3897 25.88 71.6097 25.16 72.0497 24.6C72.4897 24.04 73.0597 23.6 73.7597 23.28C74.4597 22.96 75.3997 22.62 76.5797 22.26L76.8797 20.94C75.8597 22.1 74.6397 22.68 73.2197 22.68C72.2597 22.68 71.4797 22.38 70.8797 21.78C70.2997 21.18 70.0097 20.28 70.0097 19.08C70.0097 18.58 70.0897 17.93 70.2497 17.13L72.2897 7.5H76.6097L74.4497 17.7C74.3897 17.94 74.3597 18.19 74.3597 18.45C74.3597 19.33 74.6597 19.77 75.2597 19.77C75.8197 19.77 76.2997 19.54 76.6997 19.08C77.0997 18.6 77.4197 17.95 77.6597 17.13L79.6997 7.5H84.0497L80.3897 24.9C79.9897 26.82 79.2797 28.15 78.2597 28.89C77.2597 29.63 76.1497 30 74.9297 30ZM74.2397 27.33C74.5997 27.33 74.9397 27.14 75.2597 26.76C75.5797 26.4 75.8297 25.81 76.0097 24.99L76.3697 23.22C75.3097 23.58 74.4897 24 73.9097 24.48C73.3297 24.96 73.0397 25.58 73.0397 26.34C73.0397 26.58 73.1597 26.8 73.3997 27C73.6397 27.22 73.9197 27.33 74.2397 27.33Z" fill="white"/>
</svg>
